<svg xmlns="http://www.w3.org/2000/svg" fill="none" viewBox="0 0 176 37"><g clip-path="url(#a)"><path fill="#FFC233" d="m12.148 7.89 11.848 7.22V.09a32.824 32.824 0 0 0-1.768-.045C12.65.045 4.598 4.735.135 11.462V21.71h12.013V7.891Z"/><path fill="#FFC233" d="M24.025 20.025h8.104l-8.134-4.915.03 4.915Z"/><path fill="#000" d="M12.147 7.89v13.82h1.722c.195-1.043 1.116-1.685 2.232-1.685h1.52v-1.94a2.285 2.285 0 0 1 2.277-2.296 2.285 2.285 0 0 1 2.277 2.296v1.94h1.842l-.03-4.915L12.14 7.89h.008ZM32.13 20.025h1.138v-4.274h-1.723a2.285 2.285 0 0 1-2.276-2.295 2.285 2.285 0 0 1 2.277-2.296h1.722v-1.117c0-.189.023-.378.068-.567.06-.234.157-.46.284-.664.127-.204.285-.378.464-.536.18-.151.39-.28.607-.37.105-.045.217-.083.337-.106.33-.075.674-.06 1.004.045.007 0 .022.008.03.016V3.504A27.907 27.907 0 0 0 28.34.649a27.471 27.471 0 0 0-3.28-.49c-.345-.03-.697-.06-1.049-.076V15.11l8.134 4.915h-.015Z"/><path fill="#C40E3E" d="M31.545 28.203h1.722V23.93H22.183v1.94a2.285 2.285 0 0 1-2.276 2.296 2.285 2.285 0 0 1-2.277-2.295v-1.94h-1.52c-1.184 0-2.15-.726-2.262-1.866h-.015v-.166h.015c0-.06.015-.12.03-.181H.142v9.695h29.314a2.277 2.277 0 0 1-.188-.906 2.285 2.285 0 0 1 2.277-2.295v-.008ZM36.66 8.17c.194.136.367.31.509.499a2.32 2.32 0 0 1 .45 1.366v1.118h1.722a2.285 2.285 0 0 1 2.276 2.295 2.285 2.285 0 0 1-2.276 2.296h-1.723v4.274h7.115v-8.556c-2.254-3.51-4.823-5.723-8.688-7.966v4.357c.218.068.427.174.614.31v.007ZM37.618 28.203h1.723a2.285 2.285 0 0 1 2.276 2.296c0 .324-.067.626-.187.906h3.295v-7.476h-7.114v4.274h.007Z"/><path fill="#fff" d="M41.438 31.397c.12-.28.187-.581.187-.906a2.285 2.285 0 0 0-2.277-2.296h-1.722v-4.273h7.114v-3.904h-7.114v-4.274h1.722a2.285 2.285 0 0 0 2.277-2.296 2.285 2.285 0 0 0-2.277-2.295h-1.722v-1.118c0-.249-.038-.498-.12-.732a2.22 2.22 0 0 0-.33-.634 2.288 2.288 0 0 0-1.123-.808.057.057 0 0 1-.03-.016 2.05 2.05 0 0 0-1.004-.045 2.185 2.185 0 0 0-.944.476c-.179.15-.336.332-.464.536a2.37 2.37 0 0 0-.284.665 2.387 2.387 0 0 0-.068.566v1.117h-1.722a2.285 2.285 0 0 0-2.277 2.296 2.285 2.285 0 0 0 2.277 2.295h1.722v4.274H22.175v-1.94a2.285 2.285 0 0 0-2.277-2.296 2.285 2.285 0 0 0-2.276 2.296v1.94h-1.52c-1.117 0-2.045.642-2.233 1.684-.007.06-.022.121-.03.181h-.014v.167h.014c.113 1.147 1.079 1.865 2.262 1.865h1.52v1.94a2.285 2.285 0 0 0 2.277 2.296 2.285 2.285 0 0 0 2.277-2.296v-1.94H33.26v4.273h-1.722a2.285 2.285 0 0 0-2.277 2.296c0 .325.067.627.187.906h11.99Z"/><path fill="#231F20" d="m6.92 4.651 5.228 3.24V1.91A25.166 25.166 0 0 0 6.92 4.65Z"/><path fill="#010101" d="m66.835 31.442-.03-14.754L60.62 29.38h-2.15l-6.186-12.693v14.754h-3.1V11.697H53.1l6.463 13.116 6.433-13.116h3.887v19.745h-3.048ZM83.925 26.172V24.79h-4.03c-2.096 0-3.077.566-3.077 2.001 0 1.352 1.093 2.227 2.883 2.227 2.292 0 4.06-1.215 4.224-2.846Zm.03 3.436c-1.063 1.328-2.77 1.978-4.928 1.978-3.213 0-5.227-2.001-5.227-4.652 0-2.65 2.044-4.485 5.624-4.515h4.501v-.453c0-1.888-1.206-3.02-3.55-3.02-1.423 0-2.906.505-4.388 1.525l-1.319-2.258c2.067-1.238 3.58-1.888 6.404-1.888 3.834 0 5.984 1.971 6.014 5.278l.03 9.847h-3.16V29.608ZM94.807 19.429c1.011-2.031 2.801-3.104 5.145-3.104v3.104c-2.995-.166-4.898 1.608-5.145 4.175v7.846h-3.22V16.446h3.22v2.99-.007ZM109.808 33.504c-.921 2.37-2.598 3.556-4.838 3.556-1.34 0-2.404-.392-3.437-1.268l1.37-2.507c.697.506 1.259.732 1.933.732.981 0 1.76-.536 2.261-1.66l.502-1.126-6.156-14.777h3.333l4.448 11.364 4.142-11.364h3.22l-6.77 17.065-.008-.015ZM121.859 10.511h-3.22v20.931h3.22V10.511ZM135.789 26.172V24.79h-4.029c-2.097 0-3.078.566-3.078 2.001 0 1.352 1.093 2.227 2.883 2.227 2.292 0 4.059-1.215 4.224-2.846Zm.03 3.436c-1.064 1.328-2.771 1.978-4.928 1.978-3.221 0-5.228-2.001-5.228-4.652 0-2.65 2.045-4.485 5.625-4.515h4.501v-.453c0-1.888-1.206-3.02-3.55-3.02-1.423 0-2.906.505-4.389 1.525l-1.318-2.258c2.067-1.238 3.58-1.888 6.404-1.888 3.834 0 5.984 1.971 6.013 5.278l.03 9.847h-3.16V29.608ZM157.695 22.11v9.332h-3.22v-8.434c0-2.258-1.341-3.64-3.58-3.64-2.464.03-3.999 1.752-4.224 4.093v7.981h-3.22V16.44h3.22v2.877c1.064-2.085 2.966-2.99 5.482-2.99 3.468 0 5.542 2.197 5.542 5.783ZM173.108 23.997c0-2.907-1.872-4.938-4.561-4.938-2.688 0-4.561 2.061-4.591 4.938.03 2.847 1.873 4.878 4.591 4.878 2.719 0 4.561-2.031 4.561-4.878Zm3.221 7.445h-3.213v-2.567c-1.064 1.752-2.854 2.71-5.235 2.71-4.284 0-7.138-3.133-7.138-7.701 0-4.569 2.884-7.589 7.078-7.589 2.404 0 4.194.99 5.287 2.733v-8.517h3.213v20.931h.008Z"/></g><defs><clipPath id="a"><path fill="#fff" d="M0 0h176v37H0z"/></clipPath></defs></svg>
